<svg width="34" height="34" viewBox="0 0 34 34" fill="none" xmlns="http://www.w3.org/2000/svg">
<path d="M14.6 29.64V4.36C14.6 1.96 13.5867 1 11.0267 1H4.57334C2.01334 1 1 1.96 1 4.36V29.64C1 32.04 2.01334 33 4.57334 33H11.0267C13.5867 33 14.6 32.04 14.6 29.64Z" stroke="#B3F1C6" stroke-width="1.5" stroke-linecap="round" stroke-linejoin="round"/>
<path d="M33 29.64V4.36C33 1.96 31.9866 1 29.4266 1H22.9733C20.4311 1 19.4 1.96 19.4 4.36V29.64C19.4 32.04 20.4133 33 22.9733 33H29.4266C31.9866 33 33 32.04 33 29.64Z" stroke="#B3F1C6" stroke-width="1.5" stroke-linecap="round" stroke-linejoin="round"/>
</svg>
