<svg width="32" height="32" viewBox="0 0 32 32" fill="none" xmlns="http://www.w3.org/2000/svg">
<path d="M22.6666 13.3334H25.3333C28 13.3334 29.3333 12.0001 29.3333 9.33341V6.66675C29.3333 4.00008 28 2.66675 25.3333 2.66675H22.6666C20 2.66675 18.6666 4.00008 18.6666 6.66675V9.33341C18.6666 12.0001 20 13.3334 22.6666 13.3334Z" stroke="#B3F1C6" stroke-width="1.5" stroke-miterlimit="10" stroke-linecap="round" stroke-linejoin="round"/>
<path d="M6.66663 29.3334H9.33329C12 29.3334 13.3333 28.0001 13.3333 25.3334V22.6667C13.3333 20.0001 12 18.6667 9.33329 18.6667H6.66663C3.99996 18.6667 2.66663 20.0001 2.66663 22.6667V25.3334C2.66663 28.0001 3.99996 29.3334 6.66663 29.3334Z" stroke="#B3F1C6" stroke-width="1.5" stroke-miterlimit="10" stroke-linecap="round" stroke-linejoin="round"/>
<path d="M7.99996 13.3334C10.9455 13.3334 13.3333 10.9456 13.3333 8.00008C13.3333 5.05456 10.9455 2.66675 7.99996 2.66675C5.05444 2.66675 2.66663 5.05456 2.66663 8.00008C2.66663 10.9456 5.05444 13.3334 7.99996 13.3334Z" stroke="#B3F1C6" stroke-width="1.5" stroke-miterlimit="10" stroke-linecap="round" stroke-linejoin="round"/>
<path d="M24 29.3334C26.9455 29.3334 29.3333 26.9456 29.3333 24.0001C29.3333 21.0546 26.9455 18.6667 24 18.6667C21.0544 18.6667 18.6666 21.0546 18.6666 24.0001C18.6666 26.9456 21.0544 29.3334 24 29.3334Z" stroke="#B3F1C6" stroke-width="1.5" stroke-miterlimit="10" stroke-linecap="round" stroke-linejoin="round"/>
</svg>
